<svg enable-background="new 0 0 240 240" viewBox="0 0 240 240" xmlns="http://www.w3.org/2000/svg" xmlns:xlink="http://www.w3.org/1999/xlink"><filter id="a" height="300%" width="300%" x="-100%" y="-100%"><feFlood flood-color="#444" result="color1"/><feConvolveMatrix divisor="1" edgeMode="duplicate" in="SourceAlpha" kernelMatrix="1 0 0 0 0 0 0 0 0 1 0 0 0 0 0 0 0 0 1 0 0 0 0 0 0 0 0 1 0 0 0 0 0 0 0 0 1 0 0 0 0 0 0 0 0 1 0 0 0 0 0 0 0 0 1 0 0 0 0 0 0 0 0 1" order="8,8" result="extrude"/><feComposite in="color1" in2="extrude" operator="in" result="comp-extrude"/><feOffset dx="4" dy="4" in="comp-extrude" result="offset-extrude"/><feMerge><feMergeNode in="offset-extrude"/><feMergeNode in="SourceGraphic"/></feMerge></filter><g filter="url(#a)"><path d="m-95.3 31.6c-4.4 3.7-8.1 5.5-11 5.5-2.9 0-4.8-2.1-5.8-6.3-.3-1.7-.5-4.3-.6-7.7-7.5 8-13.1 15.2-16.8 21.6-.2.2-.4.4-.7.4-.7 0-1.1-.3-1.1-1 0-.2.1-.3.2-.5 5.7-9 11.9-16.9 18.5-23.7.2-8.4.4-13.1.5-14.2-1.4.3-4.4 3.9-9 10.7-2.3 3.4-4.3 6.1-6 7.9-1.7 1.8-2.7 2.9-3.1 3.2-.3.3-.7.4-1 .4-.3 0-.5-.2-.5-.5 0-.3 1-1.6 2.9-3.7 2-2.2 4.6-5.7 7.8-10.7 3.3-4.9 5.6-8 7-9.3 1.4-1.3 2.7-1.9 3.9-1.9 1.2 0 2.1.2 2.7.5.6.3.8.9.6 1.7-.2.8-.3 1.5-.4 2.2-.1.6-.2 1.3-.2 2.1-.4 2.9-.6 5.2-.6 7.1 3-2.9 9.8-8.8 20.3-17.8.1-.1.3-.2.6-.2.3 0 .7.3 1.2.8.5.5.7 1 .7 1.6 0 .5-.2 1-.7 1.5-2 1.6-5.4 4.2-10.3 7.7-4.9 3.5-8.9 6.8-12.1 9.7-.1 1.3-.1 3-.1 5.2 0 2.2.3 4.2.8 6.1.7 2.4 2.1 3.6 4.1 3.6 3.5 0 8.9-4.2 16.2-12.6.6-.6 1.1-.9 1.4-.9.3 0 .5.2.5.6 0 .4-.2.9-.7 1.4-3.9 4.4-6.9 7.6-9.2 9.5zm17.6-1.8c.9 0 1.8.3 2.6.9.8.6 1.2 1.3 1.2 2.1 0 .8-.4 1.4-1.2 2-.8.6-1.6.9-2.5.9-.9 0-1.8-.3-2.5-1-.8-.6-1.2-1.4-1.2-2.3.1-1.7 1.2-2.6 3.6-2.6zm26.4 3.5c-5.4 4.2-9.4 6.3-11.9 6.3-1.3 0-2.3-.7-3-2-.6-1.3-1-2.7-1-4.3 0-2.9 1.2-7.4 3.7-13.2 2.5-5.9 4.9-8.8 7.1-8.8 1.2 0 2.2 2.3 3 6.9.8 4.6 1.7 7.9 2.5 10 4.2-4.4 10.2-11.8 18.1-22.1 10.1-13.1 16.7-20.2 19.9-21.4 1.1-.4 2.2-.6 3.4-.6 1.2 0 2.1.2 2.9.7.8.5 1.2 1.1 1.2 1.8 0 1-.9 1.7-2.7 1.8-2.1 1.2-5.5 4-9.9 8.5-4.5 4.4-8.1 8.4-10.8 12.2-6.6 9.1-13.3 16.6-20.2 22.4 3.4 5.1 8.8 7.6 16.2 7.6.8 0 2-.1 3.6-.2 17.1-1.6 29.1-9 36.2-22.2 2.9-5.3 4.3-10.5 4.3-15.6 0-5.2-1.9-9.8-5.6-13.9-3-3.4-6.3-5.5-9.8-6.3-3.5-.8-7.1-1.2-10.8-1.2-9.4 0-18.2 2.2-26.1 6.5-8.4 4.6-12.6 9.8-12.6 15.5 0 1.5.4 2.8 1.2 3.8.8 1 1.4 1.5 1.7 1.6h-.5c-1.6-.3-3-1.1-4.2-2.4-1.3-1.6-2-3.3-2-5.1 0-6.1 3.8-11.4 11.5-15.8 7.7-4.4 16.7-6.6 27.1-6.6 4.8 0 9.7.6 14.7 1.7 5 1.1 9.6 3.7 13.7 7.9 4.7 4.9 7.1 10.5 7.1 16.6 0 4.6-1.4 9.4-4.1 14.3-4.7 8.5-11.6 14.7-20.9 18.7-7.4 3.1-15.4 4.7-24 4.7-8.6 0-14.9-2.6-19-7.8zm-12.5-.3c0 1.9.4 3.6 1.1 5 2.6-1.2 5.8-3.6 9.6-7.3-1.8-2.9-2.9-5.3-3.4-6.9-.5-1.7-.8-3.9-1-6.7-4.2 6-6.3 11.3-6.3 15.9zm13.1-25.8c.1 0 .1 0 .2-.1 0 .1 0 .2-.1.2s0 0-.1-.1z" fill="#ccc" transform="translate(177.593222 108.854998)"/></g></svg>